# Blender v2.93.1 OBJ File: 'Box.blend'
# www.blender.org
mtllib Box.mtl
o Cube_Cube.001
v 0.325475 0.432136 -0.325475
v 0.325475 -0.000000 -0.325475
v 0.325475 0.432136 0.325475
v 0.325475 0.000000 0.325475
v -0.325475 0.432136 -0.325475
v -0.325475 -0.000000 -0.325475
v -0.325475 0.432136 0.325475
v -0.325475 0.000000 0.325475
v 0.323120 0.353001 -0.324299
v 0.322964 0.087835 -0.324221
v 0.322086 0.305542 -0.323783
v 0.321524 0.249750 -0.323502
v 0.321489 0.191087 -0.323485
v 0.321986 0.135295 -0.323733
v -0.322964 0.087837 0.321706
v -0.323120 0.352998 0.321940
v -0.321985 0.135296 0.320238
v -0.321489 0.191088 0.319493
v -0.321524 0.249750 0.319545
v -0.322085 0.305540 0.320388
v 0.323120 0.352998 0.321940
v 0.322964 0.087837 0.321706
v 0.322085 0.305540 0.320388
v 0.321524 0.249750 0.319545
v 0.321489 0.191088 0.319493
v 0.321985 0.135296 0.320238
v -0.322964 0.087835 -0.324221
v -0.323120 0.353001 -0.324299
v -0.321986 0.135295 -0.323733
v -0.321489 0.191087 -0.323485
v -0.321524 0.249750 -0.323502
v -0.322086 0.305542 -0.323783
v -0.325475 0.432136 -0.325475
v 0.325475 0.432136 -0.325475
v 0.325475 0.432136 0.325475
v -0.325475 0.432136 0.325475
v 0.325475 0.488654 0.004945
v -0.325475 0.488654 0.004945
v 0.325475 0.449525 -0.000465
v -0.325475 0.449525 -0.000465
v 0.323164 0.432239 -0.323186
v 0.323570 0.001842 -0.323587
v 0.323188 0.432307 0.323167
v 0.323575 0.001818 0.323558
v -0.323164 0.432239 -0.323186
v -0.323570 0.001842 -0.323587
v -0.323188 0.432307 0.323167
v -0.323575 0.001818 0.323558
v 0.320821 0.353090 -0.321997
v 0.320665 0.087750 -0.321919
v 0.319787 0.305597 -0.321480
v 0.319224 0.249769 -0.321199
v 0.319190 0.191073 -0.321182
v 0.319687 0.135244 -0.321430
v -0.320663 0.087695 0.319409
v -0.320819 0.353147 0.319643
v -0.319683 0.135211 0.317940
v -0.319186 0.191064 0.317194
v -0.319221 0.249781 0.317246
v -0.319783 0.305632 0.318090
v 0.320819 0.353147 0.319643
v 0.320663 0.087695 0.319409
v 0.319783 0.305632 0.318090
v 0.319221 0.249780 0.317246
v 0.319186 0.191064 0.317194
v 0.319683 0.135211 0.317940
v -0.320665 0.087750 -0.321919
v -0.320821 0.353090 -0.321997
v -0.319687 0.135244 -0.321430
v -0.319190 0.191073 -0.321182
v -0.319224 0.249769 -0.321199
v -0.319787 0.305597 -0.321480
v -0.325475 0.428886 -0.325302
v 0.325475 0.428886 -0.325302
v 0.325475 0.428931 0.324910
v -0.325475 0.428931 0.324910
v 0.325475 0.485449 0.004380
v -0.325475 0.485449 0.004380
v 0.325475 0.446275 -0.000291
v -0.325475 0.446275 -0.000291
vt 0.261269 0.434163
vt 0.260343 0.466569
vt 0.022260 0.466569
vt 0.021334 0.434163
vt 0.021334 0.194228
vt 0.261269 0.194228
vt 0.740269 0.564354
vt 0.741137 0.593526
vt 0.501203 0.593526
vt 0.502071 0.564354
vt 0.979769 0.564343
vt 0.981072 0.593526
vt 0.741571 0.564344
vt 0.500769 0.564343
vt 0.261268 0.593525
vt 0.262572 0.564343
vt 0.741137 0.434235
vt 0.740211 0.466614
vt 0.502128 0.466614
vt 0.501203 0.434235
vt 0.260400 0.564327
vt 0.021334 0.593525
vt 0.022203 0.564327
vt 0.981072 0.434208
vt 0.979682 0.466597
vt 0.741600 0.466597
vt 0.502452 0.546860
vt 0.739888 0.546860
vt 0.502659 0.526295
vt 0.739681 0.526296
vt 0.502672 0.504673
vt 0.739668 0.504673
vt 0.502489 0.484108
vt 0.739851 0.484108
vt 0.263144 0.546846
vt 0.500579 0.546847
vt 0.263454 0.526281
vt 0.500476 0.526281
vt 0.263473 0.504659
vt 0.500469 0.504659
vt 0.263199 0.484094
vt 0.500561 0.484093
vt 0.262658 0.466597
vt 0.500741 0.466596
vt 0.741761 0.546847
vt 0.979196 0.546846
vt 0.741864 0.526281
vt 0.978886 0.526281
vt 0.741871 0.504659
vt 0.978867 0.504659
vt 0.741780 0.484093
vt 0.979142 0.484094
vt 0.022584 0.546825
vt 0.260019 0.546825
vt 0.022791 0.526258
vt 0.259812 0.526259
vt 0.022804 0.504636
vt 0.259799 0.504636
vt 0.022621 0.484070
vt 0.259982 0.484070
vt 0.501203 0.593525
vt 0.741137 0.593525
vt 0.741137 0.713492
vt 0.501203 0.713493
vt 0.261268 0.713493
vt 0.021334 0.713493
vt 0.021334 0.593525
vt 0.261268 0.593525
vt 0.267309 0.426230
vt 0.267309 0.213874
vt 0.295522 0.214830
vt 0.295522 0.425274
vt 0.021334 0.194228
vt 0.021334 0.434163
vt 0.261269 0.434163
vt 0.261269 0.194228
vt 0.716433 0.215587
vt 0.716433 0.423778
vt 0.690749 0.424538
vt 0.690749 0.214826
vt 0.434705 0.215163
vt 0.434732 0.425711
vt 0.408748 0.426102
vt 0.408718 0.214008
vt 0.576688 0.215206
vt 0.576661 0.423397
vt 0.550965 0.424539
vt 0.550995 0.214819
vt 0.830409 0.214695
vt 0.830409 0.424670
vt 0.802529 0.423727
vt 0.802529 0.215637
vt 0.382647 0.425326
vt 0.382647 0.214779
vt 0.408648 0.214001
vt 0.408648 0.426103
vt 0.550015 0.213874
vt 0.550015 0.426228
vt 0.521809 0.425682
vt 0.521819 0.215237
vt 0.731844 0.215922
vt 0.731844 0.423442
vt 0.749959 0.216105
vt 0.749959 0.423260
vt 0.769004 0.216116
vt 0.769004 0.423248
vt 0.787118 0.215954
vt 0.787118 0.423410
vt 0.592101 0.215374
vt 0.592082 0.422893
vt 0.610217 0.215466
vt 0.610205 0.422620
vt 0.629262 0.215472
vt 0.629257 0.422604
vt 0.647377 0.215393
vt 0.647380 0.422847
vt 0.662790 0.215235
vt 0.662800 0.423324
vt 0.450300 0.215672
vt 0.450320 0.425541
vt 0.468628 0.215949
vt 0.468640 0.425448
vt 0.487896 0.215965
vt 0.487901 0.425442
vt 0.506224 0.215719
vt 0.506221 0.425522
vt 0.367047 0.424986
vt 0.367047 0.215119
vt 0.348718 0.424801
vt 0.348718 0.215303
vt 0.329451 0.424790
vt 0.329451 0.215314
vt 0.311121 0.424953
vt 0.311121 0.215151
vt 0.690681 0.214695
vt 0.690681 0.424671
vt 0.897582 0.423290
vt 0.833646 0.423290
vt 0.833646 0.295417
vt 0.897582 0.295417
vt 0.961555 0.423290
vt 0.897618 0.423290
vt 0.897618 0.295417
vt 0.961555 0.295417
vt 0.261268 0.593525
vt 0.021334 0.593525
vt 0.501203 0.593525
vt 0.981072 0.593526
vt 0.741137 0.593525
vt 0.501203 0.713493
vt 0.501203 0.593525
vt 0.741137 0.593525
vt 0.741137 0.713492
vt 0.021334 0.593525
vt 0.261268 0.593525
vt 0.261268 0.713493
vt 0.021334 0.713493
vn 0.0000 0.0429 0.9991
vn 0.0000 0.0370 0.9993
vn 0.0000 -1.0000 0.0000
vn 0.0000 -0.0129 -0.9999
vn 0.0000 -0.0149 -0.9999
vn -0.9997 -0.0259 0.0000
vn -0.9996 -0.0298 0.0000
vn -0.9997 -0.0258 0.0000
vn 0.9997 -0.0258 0.0000
vn 0.9996 -0.0298 0.0000
vn 0.9997 -0.0259 0.0000
vn 0.0000 0.0143 -0.9999
vn 0.0000 0.0123 -0.9999
vn 0.0000 -0.0388 0.9992
vn 0.0000 -0.0446 0.9990
vn -0.9996 0.0286 -0.0000
vn -0.9997 0.0247 0.0000
vn -0.9997 0.0246 0.0000
vn 0.0000 -0.0080 -1.0000
vn 0.0000 -0.0027 -1.0000
vn 0.0000 0.0021 -1.0000
vn 0.0000 0.0074 -1.0000
vn 0.9999 -0.0160 0.0000
vn 1.0000 -0.0054 0.0000
vn 1.0000 -0.0053 0.0000
vn 1.0000 0.0042 0.0000
vn 0.9999 0.0148 0.0000
vn 0.9997 0.0247 0.0000
vn 0.9997 0.0246 0.0000
vn -0.9999 -0.0160 0.0000
vn -1.0000 -0.0053 0.0000
vn -1.0000 -0.0054 0.0000
vn -1.0000 0.0042 0.0000
vn -0.9999 0.0148 0.0000
vn 0.0000 -0.0327 0.9995
vn 0.0000 -0.0151 0.9999
vn -0.0000 -0.0009 1.0000
vn -0.0000 0.0133 0.9999
vn 0.0000 0.0309 0.9995
vn 0.9996 0.0286 -0.0000
vn 0.0000 0.9986 -0.0534
vn 0.0000 0.9848 0.1736
vn 0.0000 -0.0483 -0.9988
vn 0.0000 1.0000 0.0000
vn 0.0000 0.0130 0.9999
vn 0.0000 0.0150 0.9999
vn 0.9997 0.0259 0.0000
vn 0.9997 0.0258 0.0000
vn 0.9996 0.0298 0.0000
vn -0.9997 0.0258 0.0000
vn -0.9997 0.0259 0.0000
vn -0.9996 0.0298 0.0000
vn 0.0000 -0.0194 0.9998
vn 0.0000 -0.0149 0.9999
vn 0.0000 0.0387 -0.9993
vn 0.0000 0.0445 -0.9990
vn 0.9994 -0.0338 0.0000
vn 0.9996 -0.0273 -0.0000
vn 0.9998 -0.0208 -0.0000
vn 0.0000 0.0080 1.0000
vn 0.0000 0.0027 1.0000
vn 0.0000 -0.0021 1.0000
vn 0.0000 -0.0074 1.0000
vn -0.9999 0.0160 -0.0000
vn -1.0000 0.0053 -0.0000
vn -1.0000 0.0054 -0.0000
vn -1.0000 -0.0042 -0.0000
vn -0.9999 -0.0148 -0.0000
vn -0.9996 -0.0273 -0.0000
vn -0.9998 -0.0208 -0.0000
vn 0.9999 0.0160 -0.0000
vn 1.0000 0.0054 -0.0000
vn 1.0000 0.0053 -0.0000
vn 1.0000 -0.0042 -0.0000
vn 0.9999 -0.0148 -0.0000
vn 0.0000 0.0327 -0.9995
vn 0.0000 0.0151 -0.9999
vn 0.0000 0.0009 -1.0000
vn 0.0000 -0.0134 -0.9999
vn 0.0000 -0.0309 -0.9995
vn -0.9994 -0.0338 0.0000
vn 0.0000 -0.9986 0.0534
vn 0.0000 -0.9848 -0.1736
vn 0.0000 0.9973 0.0739
vn 0.0595 0.9982 -0.0001
vn -0.0595 0.9982 -0.0001
vn 0.0000 0.9990 -0.0448
vn 1.0000 0.0000 0.0000
vn 0.0000 -0.0534 -0.9986
vn -1.0000 0.0000 0.0000
vn 0.0000 -0.1736 0.9848
vn 0.0000 0.1736 -0.9848
vn 0.0000 0.0534 0.9986
usemtl Material.001
s 1
f 4/1/1 22/2/2 15/3/2 8/4/1
f 6/5/3 2/6/3 4/1/3 8/4/3
f 28/7/4 5/8/5 1/9/5 9/10/4
f 16/11/6 7/12/7 5/8/7 28/13/8
f 9/14/9 1/9/10 3/15/10 21/16/11
f 6/17/12 27/18/13 10/19/13 2/20/12
f 21/21/14 3/15/15 7/22/15 16/23/14
f 8/24/16 15/25/17 27/26/18 6/17/16
f 28/7/4 9/10/4 11/27/19 32/28/19
f 32/28/19 11/27/19 12/29/20 31/30/20
f 31/30/20 12/29/20 13/31/21 30/32/21
f 30/32/21 13/31/21 14/33/22 29/34/22
f 29/34/22 14/33/22 10/19/13 27/18/13
f 9/14/9 21/16/11 23/35/23 11/36/23
f 11/36/23 23/35/23 24/37/24 12/38/25
f 12/38/25 24/37/24 25/39/26 13/40/26
f 13/40/26 25/39/26 26/41/27 14/42/27
f 14/42/27 26/41/27 22/43/28 10/44/29
f 16/11/6 28/13/8 32/45/30 20/46/30
f 20/46/30 32/45/30 31/47/31 19/48/32
f 19/48/32 31/47/31 30/49/33 18/50/33
f 18/50/33 30/49/33 29/51/34 17/52/34
f 17/52/34 29/51/34 27/26/18 15/25/17
f 21/21/14 16/23/14 20/53/35 23/54/35
f 23/54/36 20/53/36 19/55/36 24/56/36
f 24/56/37 19/55/37 18/57/37 25/58/37
f 25/58/38 18/57/38 17/59/38 26/60/38
f 26/60/39 17/59/39 15/3/2 22/2/2
f 2/20/40 10/44/29 22/43/28 4/1/40
f 34/61/41 33/62/41 40/63/41 39/64/41
f 37/65/42 38/66/42 36/67/42 35/68/42
f 44/69/43 48/70/43 55/71/43 62/72/43
f 46/73/44 48/74/44 44/75/44 42/76/44
f 68/77/45 49/78/45 41/79/46 45/80/46
f 56/81/47 68/82/48 45/83/49 47/84/49
f 49/85/50 61/86/51 43/87/52 41/88/52
f 46/89/53 42/90/53 50/91/54 67/92/54
f 61/93/55 56/94/55 47/95/56 43/96/56
f 48/97/57 46/98/57 67/99/58 55/100/59
f 68/77/45 72/101/60 51/102/60 49/78/45
f 72/101/60 71/103/61 52/104/61 51/102/60
f 71/103/61 70/105/62 53/106/62 52/104/61
f 70/105/62 69/107/63 54/108/63 53/106/62
f 69/107/63 67/92/54 50/91/54 54/108/63
f 49/85/50 51/109/64 63/110/64 61/86/51
f 51/109/64 52/111/65 64/112/66 63/110/64
f 52/111/65 53/113/67 65/114/67 64/112/66
f 53/113/67 54/115/68 66/116/68 65/114/67
f 54/115/68 50/117/69 62/118/70 66/116/68
f 56/81/47 60/119/71 72/120/71 68/82/48
f 60/119/71 59/121/72 71/122/73 72/120/71
f 59/121/72 58/123/74 70/124/74 71/122/73
f 58/123/74 57/125/75 69/126/75 70/124/74
f 57/125/75 55/100/59 67/99/58 69/126/75
f 61/93/55 63/127/76 60/128/76 56/94/55
f 63/127/77 64/129/77 59/130/77 60/128/77
f 64/129/78 65/131/78 58/132/78 59/130/78
f 65/131/79 66/133/79 57/134/79 58/132/79
f 66/133/80 62/72/80 55/71/80 57/134/80
f 42/135/81 44/136/81 62/118/70 50/117/69
f 74/137/82 79/138/82 80/139/82 73/140/82
f 77/141/83 75/142/83 76/143/83 78/144/83
f 7/22/84 3/15/84 43/145/84 47/146/84
f 3/15/85 1/9/85 41/147/85 43/145/85
f 5/8/86 7/12/86 47/148/86 45/149/86
f 1/9/87 5/8/87 45/149/87 41/147/87
f 34/61/88 39/64/88 79/150/88 74/151/88
f 33/62/89 34/61/89 74/151/89 73/152/89
f 40/63/90 33/62/90 73/152/90 80/153/90
f 35/68/91 36/67/91 76/154/91 75/155/91
f 37/65/88 35/68/88 75/155/88 77/156/88
f 36/67/90 38/66/90 78/157/90 76/154/90
f 38/66/92 37/65/92 77/156/92 78/157/92
f 39/64/93 40/63/93 80/153/93 79/150/93
